<svg xmlns="http://www.w3.org/2000/svg" xmlns:xlink="http://www.w3.org/1999/xlink" width="1024" zoomAndPan="magnify" viewBox="0 0 768 767.999994" height="1024" preserveAspectRatio="xMidYMid meet" version="1.0"><defs><clipPath id="d0a0ec28e7"><path d="M 0 0 L 727.5 0 L 727.5 768 L 0 768 Z M 0 0 " clip-rule="nonzero"/></clipPath></defs><g clip-path="url(#d0a0ec28e7)"><path fill="#1800ad" d="M 270.367188 217.6875 C 330.359375 217.6875 379.164062 168.859375 379.164062 108.84375 C 379.164062 48.824219 330.359375 0 270.367188 0 C 210.375 0 161.519531 48.828125 161.519531 108.84375 C 161.519531 168.859375 210.347656 217.6875 270.367188 217.6875 Z M 270.367188 22.238281 C 318.097656 22.238281 356.925781 61.089844 356.925781 108.84375 C 356.925781 156.601562 318.097656 195.453125 270.367188 195.453125 C 222.636719 195.453125 183.757812 156.601562 183.757812 108.84375 C 183.757812 61.089844 222.609375 22.238281 270.367188 22.238281 Z M 716.546875 357.726562 L 666.042969 357.726562 L 666.042969 311.140625 C 666.042969 311.117188 666.039062 311.09375 666.039062 311.074219 C 666.210938 299.988281 662.085938 288.835938 653.648438 280.363281 C 653.507812 280.222656 653.355469 280.089844 653.214844 279.953125 C 690.820312 264.039062 717.269531 226.769531 717.269531 183.433594 C 717.269531 125.675781 670.277344 78.6875 612.519531 78.6875 C 554.757812 78.6875 507.773438 125.675781 507.773438 183.433594 C 507.773438 232.960938 542.335938 274.539062 588.601562 285.394531 L 499.027344 374.96875 L 473.113281 374.96875 L 473.113281 344.628906 C 473.113281 281.984375 422.125 231.015625 359.453125 231.015625 L 319.164062 231.015625 C 315.191406 231.015625 311.519531 233.136719 309.535156 236.582031 L 270.371094 304.441406 L 231.15625 236.570312 C 229.167969 233.132812 225.5 231.015625 221.527344 231.015625 L 181.242188 231.015625 C 118.59375 231.015625 67.625 281.984375 67.625 344.628906 L 67.625 437.988281 L 11.132812 437.988281 C 4.992188 437.988281 0.015625 442.96875 0.015625 449.109375 L 0.015625 520.859375 C 0.015625 527 4.992188 531.980469 11.132812 531.980469 L 49.753906 531.980469 L 49.753906 801.929688 C 49.753906 808.070312 54.734375 813.046875 60.875 813.046875 L 479.820312 813.046875 C 485.960938 813.046875 490.9375 808.070312 490.9375 801.929688 L 490.9375 648.925781 L 541.117188 648.925781 L 549.246094 802.515625 C 549.558594 808.421875 554.4375 813.046875 560.347656 813.046875 L 614.773438 813.046875 C 617.824219 813.046875 620.742188 811.792969 622.839844 809.578125 C 624.9375 807.363281 626.039062 804.382812 625.875 801.339844 L 617.761719 648.925781 L 633.542969 648.925781 C 685.441406 648.925781 727.667969 606.679688 727.667969 554.757812 L 727.667969 368.847656 C 727.667969 362.707031 722.6875 357.726562 716.546875 357.726562 Z M 530.007812 183.433594 C 530.007812 137.9375 567.023438 100.925781 612.515625 100.925781 C 658.011719 100.925781 695.027344 137.9375 695.027344 183.433594 C 695.027344 228.929688 658.011719 265.941406 612.515625 265.941406 C 567.023438 265.941406 530.007812 228.929688 530.007812 183.433594 Z M 503.628906 397.207031 C 506.578125 397.207031 509.40625 396.035156 511.492188 393.949219 L 609.367188 296.074219 C 613.136719 292.289062 618.191406 290.199219 623.601562 290.195312 L 623.621094 290.195312 C 629.042969 290.195312 634.121094 292.289062 637.90625 296.074219 C 645.789062 303.988281 645.804688 316.804688 637.921875 324.65625 L 524.589844 437.988281 L 408.53125 437.988281 C 407.589844 437.730469 406.609375 437.582031 405.585938 437.582031 C 394.441406 437.582031 385.378906 428.535156 385.378906 417.417969 C 385.378906 406.300781 394.441406 397.207031 405.585938 397.207031 Z M 529.601562 531.976562 C 535.742188 531.976562 540.722656 527 540.722656 520.859375 L 540.722656 453.304688 L 643.804688 350.222656 L 643.804688 368.261719 C 643.804688 368.359375 643.816406 368.453125 643.816406 368.554688 C 643.816406 368.652344 643.804688 368.746094 643.804688 368.84375 L 643.804688 513.878906 C 643.804688 542.078125 620.863281 565.015625 592.667969 565.015625 L 490.9375 565.015625 L 490.9375 531.976562 L 529.605469 531.976562 Z M 197.128906 331.484375 C 197.128906 340.222656 190 347.328125 181.238281 347.328125 C 172.476562 347.328125 165.394531 340.222656 165.394531 331.484375 C 165.394531 322.746094 172.5 315.59375 181.238281 315.59375 C 189.976562 315.59375 197.128906 322.722656 197.128906 331.484375 Z M 89.859375 344.628906 C 89.859375 298.007812 124.960938 259.457031 170.121094 253.953125 L 170.121094 295.019531 C 154.527344 299.792969 143.15625 314.332031 143.15625 331.484375 C 143.15625 352.484375 160.238281 369.566406 181.238281 369.566406 C 202.238281 369.566406 219.367188 352.484375 219.367188 331.484375 C 219.367188 314.328125 207.972656 299.785156 192.359375 295.015625 L 192.359375 253.25 L 215.109375 253.25 L 260.738281 332.226562 C 262.726562 335.667969 266.394531 337.785156 270.367188 337.785156 C 274.335938 337.785156 278.007812 335.667969 279.992188 332.226562 L 325.582031 253.25 L 348.328125 253.25 L 348.328125 300.144531 C 332.425781 304.085938 320.597656 318.476562 320.597656 335.578125 L 320.597656 352.730469 C 320.597656 358.871094 325.578125 363.847656 331.71875 363.847656 C 337.859375 363.847656 342.835938 358.871094 342.835938 352.730469 L 342.835938 335.578125 C 342.835938 327.710938 349.238281 321.3125 357.105469 321.3125 L 361.785156 321.3125 C 369.65625 321.3125 376.054688 327.710938 376.054688 335.578125 L 376.054688 352.730469 C 376.054688 358.871094 381.03125 363.847656 387.171875 363.847656 C 393.3125 363.847656 398.292969 358.871094 398.292969 352.730469 L 398.292969 335.578125 C 398.292969 318.476562 386.464844 304.085938 370.566406 300.144531 L 370.566406 253.949219 C 415.746094 259.453125 450.867188 298.003906 450.867188 344.628906 L 450.867188 374.96875 L 405.585938 374.96875 C 382.175781 374.96875 363.136719 394.011719 363.136719 417.417969 C 363.136719 424.878906 365.082031 431.890625 368.484375 437.988281 L 89.859375 437.988281 Z M 22.25 509.738281 L 22.25 460.226562 L 518.484375 460.226562 L 518.484375 509.738281 Z M 468.695312 790.808594 L 71.988281 790.808594 L 71.988281 531.976562 L 468.695312 531.976562 Z M 570.890625 790.808594 L 563.382812 648.925781 L 595.496094 648.925781 L 603.046875 790.808594 Z M 705.425781 554.753906 C 705.425781 594.417969 673.175781 626.6875 633.539062 626.6875 L 490.933594 626.6875 L 490.933594 587.253906 L 592.667969 587.253906 C 633.125 587.253906 666.039062 554.339844 666.039062 513.878906 L 666.039062 379.964844 L 705.425781 379.964844 Z M 360.214844 613.945312 L 317.8125 613.945312 L 317.8125 571.546875 C 317.8125 565.40625 312.832031 560.425781 306.691406 560.425781 L 233.996094 560.425781 C 227.855469 560.425781 222.875 565.40625 222.875 571.546875 L 222.875 613.945312 L 180.472656 613.945312 C 174.332031 613.945312 169.355469 618.925781 169.355469 625.066406 L 169.355469 697.765625 C 169.355469 703.90625 174.332031 708.886719 180.472656 708.886719 L 222.875 708.886719 L 222.875 751.285156 C 222.875 757.425781 227.855469 762.40625 233.996094 762.40625 L 306.691406 762.40625 C 312.832031 762.40625 317.8125 757.425781 317.8125 751.285156 L 317.8125 708.886719 L 360.214844 708.886719 C 366.355469 708.886719 371.332031 703.90625 371.332031 697.765625 L 371.332031 625.066406 C 371.332031 618.925781 366.355469 613.945312 360.214844 613.945312 Z M 349.09375 686.648438 L 306.691406 686.648438 C 300.550781 686.648438 295.570312 691.625 295.570312 697.765625 L 295.570312 740.167969 L 245.113281 740.167969 L 245.113281 697.765625 C 245.113281 691.625 240.132812 686.648438 233.992188 686.648438 L 191.589844 686.648438 L 191.589844 636.183594 L 233.992188 636.183594 C 240.132812 636.183594 245.113281 631.207031 245.113281 625.066406 L 245.113281 582.664062 L 295.570312 582.664062 L 295.570312 625.066406 C 295.570312 631.207031 300.550781 636.183594 306.691406 636.183594 L 349.09375 636.183594 Z M 349.09375 686.648438 " fill-opacity="1" fill-rule="nonzero"/></g></svg>