<svg xmlns="http://www.w3.org/2000/svg" xmlns:xlink="http://www.w3.org/1999/xlink" width="1024" zoomAndPan="magnify" viewBox="0 0 768 767.999994" height="1024" preserveAspectRatio="xMidYMid meet" version="1.0"><defs><clipPath id="4990f11276"><path d="M 18 116 L 741.363281 116 L 741.363281 642 L 18 642 Z M 18 116 " clip-rule="nonzero"/></clipPath></defs><g clip-path="url(#4990f11276)"><path fill="#ff66c4" d="M 465.039062 342.578125 C 451.730469 342.578125 436.144531 342.832031 425.339844 343.207031 C 422.917969 343.289062 420.617188 343.882812 418.53125 344.808594 L 447.824219 306.074219 C 487.054688 254.164062 476.746094 179.996094 424.847656 140.753906 C 404.183594 125.128906 379.589844 116.871094 353.742188 116.871094 C 316.371094 116.871094 282.035156 133.953125 259.527344 163.734375 L 42.113281 451.238281 C 23.113281 476.386719 15.023438 507.429688 19.363281 538.667969 C 23.691406 569.890625 39.945312 597.570312 65.089844 616.570312 C 85.765625 632.195312 110.347656 640.453125 136.183594 640.453125 C 173.570312 640.453125 207.890625 623.371094 230.398438 593.59375 L 232.847656 590.347656 C 232.640625 598.089844 237.273438 605.441406 244.953125 608.214844 C 289.148438 624.1875 370.1875 641.261719 465.027344 641.261719 C 535.484375 641.261719 601.921875 634.074219 652.144531 621.066406 C 711.496094 605.695312 741.574219 583.753906 741.574219 555.871094 L 741.574219 427.996094 C 741.574219 360.433594 560.691406 342.589844 465.039062 342.578125 Z M 704.636719 427.886719 C 702.070312 441.269531 624.527344 476.445312 465.101562 476.445312 L 465.066406 476.445312 C 436.46875 476.445312 410.34375 475.191406 384.398438 472.550781 L 583.574219 387.066406 C 663.25 398.15625 702.816406 418.542969 704.636719 427.886719 Z M 426.65625 380.121094 C 437.046875 379.757812 452.128906 379.519531 465.054688 379.519531 C 495.082031 379.519531 522.210938 380.773438 546.488281 382.882812 L 348.316406 467.933594 C 344.195312 467.308594 340.082031 466.679688 335.925781 465.980469 C 332.488281 465.390625 329.136719 465.875 326.085938 467.089844 L 407.75 359.058594 C 407.605469 360.132812 407.5 361.207031 407.535156 362.316406 C 407.882812 372.515625 416.699219 380.519531 426.65625 380.121094 Z M 288.980469 186 C 304.445312 165.542969 328.039062 153.8125 353.730469 153.8125 C 371.488281 153.8125 388.367188 159.488281 402.566406 170.21875 C 438.214844 197.175781 445.304688 248.136719 418.347656 283.796875 L 315.222656 420.195312 L 185.867188 322.398438 Z M 200.949219 571.324219 C 185.492188 591.773438 161.886719 603.515625 136.195312 603.515625 C 118.449219 603.515625 101.585938 597.835938 87.371094 587.09375 C 70.09375 574.039062 58.957031 555.039062 55.964844 533.589844 C 52.988281 512.144531 58.546875 490.804688 71.601562 473.527344 L 174.726562 337.140625 L 304.085938 434.9375 Z M 465.039062 604.34375 C 374.875 604.34375 296.898438 587.722656 257.523438 573.496094 C 253.582031 572.058594 249.484375 572.132812 245.757812 573.289062 L 314.550781 482.316406 C 313.558594 491.925781 320.105469 500.773438 329.789062 502.402344 C 374.910156 509.996094 416.636719 513.386719 465.039062 513.386719 L 465.089844 513.386719 C 535.507812 513.386719 601.957031 506.210938 652.15625 493.191406 C 673.449219 487.671875 690.90625 481.292969 704.636719 474.109375 L 704.636719 555.785156 C 702.007812 569.191406 624.453125 604.347656 465.039062 604.347656 Z M 465.039062 604.34375 " fill-opacity="1" fill-rule="nonzero"/></g></svg>