<svg xmlns="http://www.w3.org/2000/svg" xmlns:xlink="http://www.w3.org/1999/xlink" width="500" zoomAndPan="magnify" viewBox="0 0 375 374.999991" height="500" preserveAspectRatio="xMidYMid meet" version="1.0"><defs><g/><clipPath id="d5ff91a7e4"><path d="M 61.972656 1.507812 L 248.207031 1.507812 L 248.207031 290.585938 L 61.972656 290.585938 Z M 61.972656 1.507812 " clip-rule="nonzero"/></clipPath><clipPath id="00379332f0"><path d="M 196.464844 168.019531 L 276.707031 168.019531 L 276.707031 216.65625 L 196.464844 216.65625 Z M 196.464844 168.019531 " clip-rule="nonzero"/></clipPath><clipPath id="fe67143c5d"><path d="M 181 186 L 272 186 L 272 222 L 181 222 Z M 181 186 " clip-rule="nonzero"/></clipPath><clipPath id="55a37a4d25"><path d="M 262.574219 3.363281 L 312.925781 205.660156 L 186.152344 237.210938 L 135.800781 34.914062 Z M 262.574219 3.363281 " clip-rule="nonzero"/></clipPath><clipPath id="814fbf571a"><path d="M 135.648438 34.953125 L 185.996094 237.25 L 312.769531 205.699219 L 262.421875 3.402344 Z M 135.648438 34.953125 " clip-rule="nonzero"/></clipPath><clipPath id="663fcd4fe7"><path d="M 252 28 L 293 28 L 293 197 L 252 197 Z M 252 28 " clip-rule="nonzero"/></clipPath><clipPath id="babadf8e75"><path d="M 262.574219 3.363281 L 312.925781 205.660156 L 186.152344 237.210938 L 135.800781 34.914062 Z M 262.574219 3.363281 " clip-rule="nonzero"/></clipPath><clipPath id="fc7c271c1a"><path d="M 135.648438 34.953125 L 185.996094 237.25 L 312.769531 205.699219 L 262.421875 3.402344 Z M 135.648438 34.953125 " clip-rule="nonzero"/></clipPath><clipPath id="2088e173e1"><path d="M 242 6 L 276 6 L 276 132 L 242 132 Z M 242 6 " clip-rule="nonzero"/></clipPath><clipPath id="cb017a3f13"><path d="M 262.574219 3.363281 L 312.925781 205.660156 L 186.152344 237.210938 L 135.800781 34.914062 Z M 262.574219 3.363281 " clip-rule="nonzero"/></clipPath><clipPath id="9f2026a604"><path d="M 135.648438 34.953125 L 185.996094 237.25 L 312.769531 205.699219 L 262.421875 3.402344 Z M 135.648438 34.953125 " clip-rule="nonzero"/></clipPath><clipPath id="84ab810691"><path d="M 250 143 L 298 143 L 298 222 L 250 222 Z M 250 143 " clip-rule="nonzero"/></clipPath><clipPath id="e01df19373"><path d="M 262.574219 3.363281 L 312.925781 205.660156 L 186.152344 237.210938 L 135.800781 34.914062 Z M 262.574219 3.363281 " clip-rule="nonzero"/></clipPath><clipPath id="bfd509065d"><path d="M 135.648438 34.953125 L 185.996094 237.25 L 312.769531 205.699219 L 262.421875 3.402344 Z M 135.648438 34.953125 " clip-rule="nonzero"/></clipPath><clipPath id="8f55f96808"><path d="M 215 149 L 271 149 L 271 197 L 215 197 Z M 215 149 " clip-rule="nonzero"/></clipPath><clipPath id="203ef2a2b8"><path d="M 262.574219 3.363281 L 312.925781 205.660156 L 186.152344 237.210938 L 135.800781 34.914062 Z M 262.574219 3.363281 " clip-rule="nonzero"/></clipPath><clipPath id="a29dd40a15"><path d="M 135.648438 34.953125 L 185.996094 237.25 L 312.769531 205.699219 L 262.421875 3.402344 Z M 135.648438 34.953125 " clip-rule="nonzero"/></clipPath></defs><g clip-path="url(#d5ff91a7e4)"><path fill="#02066b" d="M 141.316406 247.648438 L 241.386719 247.648438 C 238.15625 253.144531 235.585938 258.40625 232.21875 263.082031 C 219.859375 280.269531 202.925781 289.820312 181.761719 290.074219 C 142.855469 290.546875 103.945312 290.269531 65.035156 290.292969 C 64.34375 290.292969 63.65625 290.226562 61.957031 290.132812 L 252.070312 0.660156 C 303.132812 97.40625 353.878906 193.511719 405.015625 290.40625 C 388.945312 288.914062 375.175781 284.214844 362.726562 275.832031 C 350.273438 267.449219 340.734375 256.222656 333.652344 242.945312 C 329.027344 234.273438 324.136719 225.730469 319.796875 216.917969 C 317.800781 212.847656 315.433594 211.410156 310.789062 211.445312 C 275.832031 211.714844 240.878906 211.628906 205.902344 211.664062 L 200.972656 211.664062 C 204.160156 206.835938 206.539062 202.570312 209.550781 198.808594 C 220.046875 185.679688 232.929688 176.046875 249.9375 173.246094 C 254.480469 172.5 259.242188 172.652344 263.835938 172.621094 C 274.492188 172.535156 285.152344 172.621094 296.648438 172.621094 L 249.277344 83.957031 Z M 141.316406 247.648438 " fill-opacity="1" fill-rule="nonzero"/></g><g clip-path="url(#00379332f0)"><path fill="#ffffff" d="M 196.464844 168.019531 L 276.640625 168.019531 L 276.640625 216.65625 L 196.464844 216.65625 Z M 196.464844 168.019531 " fill-opacity="1" fill-rule="nonzero"/></g><g clip-path="url(#fe67143c5d)"><g clip-path="url(#55a37a4d25)"><g clip-path="url(#814fbf571a)"><path fill="#66ad45" d="M 270.375 200.5 C 268.003906 202.929688 263.265625 207.785156 258.738281 211.464844 C 249.53125 218.941406 239.289062 221.953125 227.488281 221.910156 C 217.609375 221.871094 211.746094 219.414062 202.796875 216.375 C 199.359375 215.207031 195.320312 214.109375 191.582031 214.238281 C 187.847656 214.367188 184.417969 215.722656 182.699219 216.398438 C 180.984375 217.074219 180.984375 217.074219 181.84375 214.964844 C 182.703125 212.855469 184.421875 208.636719 186.253906 205.410156 C 190.378906 198.144531 195.925781 193.425781 203.570312 190.003906 C 211.527344 186.441406 221.714844 185.199219 230.050781 188.011719 C 236.828125 190.300781 242.769531 196.058594 249.714844 198.300781 C 253.035156 199.371094 256.929688 199.828125 260.867188 199.6875 C 263.011719 199.609375 265.167969 199.355469 267.007812 199.082031 C 263.371094 201.089844 259.273438 202.511719 255.242188 203.46875 C 251.195312 204.429688 246.898438 204.988281 242.710938 205.03125 C 237.140625 205.085938 231.734375 204.230469 226.753906 203.441406 C 215.914062 201.902344 207.894531 202.039062 196.546875 205.738281 C 212.339844 204.390625 214.105469 204.140625 226.339844 206.082031 C 231.433594 206.890625 236.960938 207.765625 242.742188 207.707031 C 247.113281 207.664062 251.617188 207.078125 255.863281 206.066406 C 260.191406 205.039062 264.253906 203.570312 267.65625 201.773438 C 268.933594 201.101562 270.117188 200.382812 271.222656 199.628906 C 270.984375 199.878906 270.703125 200.167969 270.375 200.5 Z M 270.375 200.5 " fill-opacity="1" fill-rule="evenodd"/></g></g></g><g clip-path="url(#663fcd4fe7)"><g clip-path="url(#babadf8e75)"><g clip-path="url(#fc7c271c1a)"><path fill="#66ad45" d="M 274.453125 196.25 C 288.027344 177.570312 295.703125 154.796875 290.375 134.734375 C 283.742188 109.757812 272.238281 92.054688 263.828125 68.34375 C 261.84375 62.746094 259.050781 54.757812 257.042969 47.667969 C 255.039062 40.582031 253.820312 34.394531 253.214844 31.300781 C 252.605469 28.207031 252.605469 28.207031 252.828125 30.589844 C 253.046875 32.972656 253.492188 37.738281 254.421875 44.203125 C 256.800781 60.703125 260.652344 77.042969 266.101562 92.804688 C 270.976562 106.914062 277.734375 120.410156 281.367188 135 C 286.699219 156.433594 283.710938 177.984375 274.453125 196.25 Z M 274.453125 196.25 " fill-opacity="1" fill-rule="evenodd"/></g></g></g><g clip-path="url(#2088e173e1)"><g clip-path="url(#cb017a3f13)"><g clip-path="url(#9f2026a604)"><path fill="#66ad45" d="M 268.734375 118.085938 C 265.054688 111.761719 260.488281 106.023438 255.300781 95.050781 C 250.113281 84.078125 244.304688 67.863281 243.066406 51.472656 C 241.855469 35.398438 245.042969 19.152344 248.4375 6.882812 C 248.332031 17.492188 249.105469 29.675781 250.859375 42.542969 C 252.402344 53.859375 254.535156 64.460938 257.027344 73.789062 C 259.179688 82.03125 261.558594 88.75 263.765625 94.699219 C 266.683594 102.5625 269.300781 109.078125 271.625 116.109375 C 273.949219 123.144531 275.976562 130.691406 275.59375 131.007812 C 275.210938 131.328125 272.417969 124.410156 268.734375 118.085938 Z M 268.734375 118.085938 " fill-opacity="1" fill-rule="evenodd"/></g></g></g><g clip-path="url(#84ab810691)"><g clip-path="url(#e01df19373)"><g clip-path="url(#bfd509065d)"><path fill="#66ad45" d="M 250.605469 221.574219 C 264.386719 216.316406 277.0625 208.34375 286.113281 198.128906 C 286.941406 197.066406 287.835938 195.921875 288.742188 194.632812 C 292.011719 189.992188 295.425781 183.523438 296.777344 174.214844 C 298.058594 165.394531 297.480469 154.027344 297.324219 143.03125 C 295.230469 153.457031 293.355469 163.949219 289.851562 174.042969 C 282.613281 194.910156 268.339844 211.332031 250.605469 221.574219 Z M 250.605469 221.574219 " fill-opacity="1" fill-rule="evenodd"/></g></g></g><g clip-path="url(#8f55f96808)"><g clip-path="url(#203ef2a2b8)"><g clip-path="url(#a29dd40a15)"><path fill="#66ad45" d="M 269.207031 196.023438 C 266.644531 195.867188 261.523438 195.5625 257.179688 194.792969 C 248.347656 193.230469 241.558594 188.863281 235.742188 182.09375 C 230.875 176.429688 229.378906 171.859375 226.6875 165.238281 C 225.652344 162.695312 224.28125 159.84375 222.359375 157.769531 C 220.4375 155.699219 217.964844 154.40625 216.730469 153.761719 C 215.492188 153.113281 215.492188 153.113281 217.125 152.5625 C 218.757812 152.007812 222.019531 150.902344 224.769531 150.355469 C 230.964844 149.117188 236.410156 149.953125 242.148438 152.632812 C 248.121094 155.417969 253.875 160.625 256.390625 166.785156 C 258.4375 171.792969 258.082031 178.039062 260.242188 183.121094 C 261.273438 185.546875 262.9375 188 264.964844 190.179688 C 266.070312 191.371094 267.28125 192.476562 268.351562 193.394531 C 265.402344 192.308594 262.5625 190.667969 260.019531 188.835938 C 257.46875 187 255.023438 184.816406 252.925781 182.445312 C 250.136719 179.289062 247.953125 175.773438 245.9375 172.535156 C 241.453125 165.578125 237.40625 161.058594 229.675781 156.398438 C 238.261719 164.765625 239.28125 165.648438 244.222656 173.605469 C 246.28125 176.917969 248.515625 180.511719 251.410156 183.789062 C 253.601562 186.265625 256.160156 188.550781 258.84375 190.480469 C 261.570312 192.445312 264.421875 194.039062 267.132812 195.097656 C 268.148438 195.492188 269.144531 195.816406 270.121094 196.074219 C 269.863281 196.0625 269.558594 196.042969 269.207031 196.023438 Z M 269.207031 196.023438 " fill-opacity="1" fill-rule="evenodd"/></g></g></g><g fill="#02066b" fill-opacity="1"><g transform="translate(61.973907, 329.758015)"><g><path d="M 16.96875 -29.234375 L 28.78125 0 L 21.609375 0 L 19.453125 -5.84375 L 8.328125 -5.84375 L 6.171875 0 L -1 0 L 10.8125 -29.234375 Z M 17.1875 -11.6875 L 13.921875 -20.203125 L 13.859375 -20.203125 L 10.59375 -11.6875 Z M 17.1875 -11.6875 "/></g></g></g><g fill="#02066b" fill-opacity="1"><g transform="translate(118.1104, 329.758015)"><g><path d="M 2.125 -29.234375 L 12.578125 -29.234375 C 15.390625 -29.234375 17.679688 -28.484375 19.453125 -26.984375 C 21.222656 -25.484375 22.109375 -23.335938 22.109375 -20.546875 C 22.109375 -18.398438 21.570312 -16.597656 20.5 -15.140625 C 19.425781 -13.691406 17.96875 -12.671875 16.125 -12.078125 L 26.1875 0 L 17.71875 0 L 8.78125 -11.546875 L 8.78125 0 L 2.125 0 Z M 8.78125 -16.265625 L 9.5625 -16.265625 C 10.175781 -16.265625 10.695312 -16.273438 11.125 -16.296875 C 11.550781 -16.328125 12.035156 -16.410156 12.578125 -16.546875 C 13.117188 -16.691406 13.554688 -16.894531 13.890625 -17.15625 C 14.222656 -17.414062 14.503906 -17.789062 14.734375 -18.28125 C 14.972656 -18.78125 15.09375 -19.382812 15.09375 -20.09375 C 15.09375 -20.800781 14.972656 -21.398438 14.734375 -21.890625 C 14.503906 -22.390625 14.222656 -22.769531 13.890625 -23.03125 C 13.554688 -23.289062 13.117188 -23.488281 12.578125 -23.625 C 12.035156 -23.769531 11.550781 -23.851562 11.125 -23.875 C 10.695312 -23.90625 10.175781 -23.921875 9.5625 -23.921875 L 8.78125 -23.921875 Z M 8.78125 -16.265625 "/></g></g></g><g fill="#02066b" fill-opacity="1"><g transform="translate(171.837146, 329.758015)"><g><path d="M 16.96875 -29.234375 L 28.78125 0 L 21.609375 0 L 19.453125 -5.84375 L 8.328125 -5.84375 L 6.171875 0 L -1 0 L 10.8125 -29.234375 Z M 17.1875 -11.6875 L 13.921875 -20.203125 L 13.859375 -20.203125 L 10.59375 -11.6875 Z M 17.1875 -11.6875 "/></g></g></g><g fill="#02066b" fill-opacity="1"><g transform="translate(227.97364, 329.758015)"><g><path d="M 8.78125 -18.140625 L 8.78125 0 L 2.125 0 L 2.125 -29.234375 L 8.78125 -29.234375 L 20.40625 -11.09375 L 20.484375 -11.09375 L 20.484375 -29.234375 L 27.140625 -29.234375 L 27.140625 0 L 20.484375 0 L 8.859375 -18.140625 Z M 8.78125 -18.140625 "/></g></g></g><g fill="#02066b" fill-opacity="1"><g transform="translate(61.973907, 360.213874)"><g><path d="M 11.265625 -8.484375 L 11.265625 -14.28125 L 12.9375 -14.28125 L 12.9375 0 L 11.265625 0 L 11.265625 -7.0625 L 3.84375 -7.0625 L 3.84375 0 L 2.15625 0 L 2.15625 -14.28125 L 3.84375 -14.28125 L 3.84375 -8.484375 Z M 11.265625 -8.484375 "/></g></g></g><g fill="#02066b" fill-opacity="1"><g transform="translate(77.065665, 360.213874)"><g><path d="M 10.265625 -5.015625 L 2.859375 -5.015625 C 2.910156 -3.710938 3.222656 -2.753906 3.796875 -2.140625 C 4.378906 -1.523438 5.179688 -1.21875 6.203125 -1.21875 C 6.972656 -1.21875 7.59375 -1.351562 8.0625 -1.625 C 8.53125 -1.90625 8.894531 -2.335938 9.15625 -2.921875 L 9.359375 -2.921875 L 10.40625 -2.3125 C 10.09375 -1.53125 9.59375 -0.914062 8.90625 -0.46875 C 8.21875 -0.0195312 7.316406 0.203125 6.203125 0.203125 C 5.160156 0.203125 4.265625 0 3.515625 -0.40625 C 2.765625 -0.820312 2.1875 -1.445312 1.78125 -2.28125 C 1.382812 -3.113281 1.1875 -4.144531 1.1875 -5.375 C 1.1875 -6.601562 1.398438 -7.632812 1.828125 -8.46875 C 2.253906 -9.3125 2.832031 -9.941406 3.5625 -10.359375 C 4.300781 -10.773438 5.148438 -10.984375 6.109375 -10.984375 C 7.484375 -10.984375 8.554688 -10.59375 9.328125 -9.8125 C 10.109375 -9.03125 10.503906 -7.875 10.515625 -6.34375 C 10.515625 -5.75 10.5 -5.347656 10.46875 -5.140625 Z M 8.9375 -6.34375 C 8.90625 -7.488281 8.648438 -8.320312 8.171875 -8.84375 C 7.691406 -9.363281 7.003906 -9.625 6.109375 -9.625 C 5.160156 -9.625 4.414062 -9.363281 3.875 -8.84375 C 3.34375 -8.320312 3.019531 -7.488281 2.90625 -6.34375 Z M 8.9375 -6.34375 "/></g></g></g><g fill="#02066b" fill-opacity="1"><g transform="translate(88.545553, 360.213874)"><g><path d="M 4.4375 0.203125 C 3.382812 0.203125 2.554688 -0.0703125 1.953125 -0.625 C 1.359375 -1.175781 1.0625 -1.96875 1.0625 -3 C 1.0625 -3.632812 1.191406 -4.171875 1.453125 -4.609375 C 1.722656 -5.054688 2.132812 -5.414062 2.6875 -5.6875 C 3.238281 -5.96875 3.960938 -6.179688 4.859375 -6.328125 C 5.640625 -6.460938 6.234375 -6.609375 6.640625 -6.765625 C 7.046875 -6.929688 7.316406 -7.113281 7.453125 -7.3125 C 7.597656 -7.519531 7.671875 -7.773438 7.671875 -8.078125 C 7.671875 -8.566406 7.5 -8.941406 7.15625 -9.203125 C 6.820312 -9.460938 6.285156 -9.59375 5.546875 -9.59375 C 4.847656 -9.59375 4.25 -9.457031 3.75 -9.1875 C 3.257812 -8.914062 2.804688 -8.515625 2.390625 -7.984375 L 2.1875 -7.984375 L 1.40625 -9.078125 C 1.863281 -9.660156 2.441406 -10.125 3.140625 -10.46875 C 3.847656 -10.8125 4.648438 -10.984375 5.546875 -10.984375 C 6.816406 -10.984375 7.753906 -10.703125 8.359375 -10.140625 C 8.960938 -9.585938 9.265625 -8.816406 9.265625 -7.828125 L 9.265625 -2.125 C 9.265625 -1.519531 9.515625 -1.21875 10.015625 -1.21875 C 10.191406 -1.21875 10.359375 -1.25 10.515625 -1.3125 L 10.640625 -1.265625 L 10.828125 -0.171875 C 10.710938 -0.0859375 10.554688 -0.0234375 10.359375 0.015625 C 10.171875 0.0546875 9.976562 0.078125 9.78125 0.078125 C 9.1875 0.078125 8.738281 -0.0507812 8.4375 -0.3125 C 8.132812 -0.570312 7.941406 -0.957031 7.859375 -1.46875 L 7.640625 -1.484375 C 7.335938 -0.921875 6.925781 -0.5 6.40625 -0.21875 C 5.882812 0.0625 5.226562 0.203125 4.4375 0.203125 Z M 4.796875 -1.0625 C 5.390625 -1.0625 5.90625 -1.195312 6.34375 -1.46875 C 6.789062 -1.75 7.128906 -2.140625 7.359375 -2.640625 C 7.597656 -3.148438 7.71875 -3.734375 7.71875 -4.390625 L 7.71875 -5.75 L 7.53125 -5.796875 C 7.289062 -5.617188 7 -5.472656 6.65625 -5.359375 C 6.3125 -5.253906 5.828125 -5.15625 5.203125 -5.0625 C 4.578125 -4.976562 4.082031 -4.847656 3.71875 -4.671875 C 3.351562 -4.492188 3.09375 -4.269531 2.9375 -4 C 2.78125 -3.726562 2.703125 -3.394531 2.703125 -3 C 2.703125 -2.363281 2.882812 -1.878906 3.25 -1.546875 C 3.625 -1.222656 4.140625 -1.0625 4.796875 -1.0625 Z M 4.796875 -1.0625 "/></g></g></g><g fill="#02066b" fill-opacity="1"><g transform="translate(99.683778, 360.213874)"><g><path d="M 4.28125 0.203125 C 3.519531 0.203125 2.921875 -0.0078125 2.484375 -0.4375 C 2.054688 -0.875 1.84375 -1.523438 1.84375 -2.390625 L 1.84375 -15.09375 L 3.421875 -15.09375 L 3.421875 -2.484375 C 3.421875 -2.035156 3.507812 -1.710938 3.6875 -1.515625 C 3.863281 -1.316406 4.132812 -1.21875 4.5 -1.21875 C 4.71875 -1.21875 4.941406 -1.253906 5.171875 -1.328125 L 5.296875 -1.296875 L 5.484375 -0.046875 C 5.367188 0.0351562 5.203125 0.0976562 4.984375 0.140625 C 4.765625 0.179688 4.53125 0.203125 4.28125 0.203125 Z M 4.28125 0.203125 "/></g></g></g><g fill="#02066b" fill-opacity="1"><g transform="translate(105.540863, 360.213874)"><g><path d="M 7.28125 -1.703125 L 7.796875 -0.5625 C 7.535156 -0.3125 7.195312 -0.125 6.78125 0 C 6.375 0.132812 5.929688 0.203125 5.453125 0.203125 C 3.390625 0.203125 2.359375 -0.835938 2.359375 -2.921875 L 2.359375 -9.46875 L 0.484375 -9.46875 L 0.484375 -10.78125 L 2.359375 -10.78125 L 2.359375 -13.0625 L 3.953125 -13.328125 L 3.953125 -10.78125 L 7.421875 -10.78125 L 7.421875 -9.46875 L 3.953125 -9.46875 L 3.953125 -3.078125 C 3.953125 -1.835938 4.488281 -1.21875 5.5625 -1.21875 C 6.15625 -1.21875 6.660156 -1.378906 7.078125 -1.703125 Z M 7.28125 -1.703125 "/></g></g></g><g fill="#02066b" fill-opacity="1"><g transform="translate(113.740783, 360.213874)"><g><path d="M 1.875 0 L 1.875 -15.09375 L 3.46875 -15.09375 L 3.46875 -9.234375 L 3.671875 -9.203125 C 4.441406 -10.390625 5.550781 -10.984375 7 -10.984375 C 8.300781 -10.984375 9.238281 -10.648438 9.8125 -9.984375 C 10.394531 -9.328125 10.6875 -8.3125 10.6875 -6.9375 L 10.6875 0 L 9.109375 0 L 9.109375 -6.890625 C 9.109375 -7.546875 9.023438 -8.066406 8.859375 -8.453125 C 8.691406 -8.847656 8.429688 -9.132812 8.078125 -9.3125 C 7.734375 -9.5 7.273438 -9.59375 6.703125 -9.59375 C 5.734375 -9.59375 4.953125 -9.273438 4.359375 -8.640625 C 3.765625 -8.015625 3.46875 -6.976562 3.46875 -5.53125 L 3.46875 0 Z M 1.875 0 "/></g></g></g><g fill="#02066b" fill-opacity="1"><g transform="translate(126.138282, 360.213874)"><g><path d="M 6.1875 0.203125 C 5.226562 0.203125 4.367188 -0.0078125 3.609375 -0.4375 C 2.859375 -0.875 2.265625 -1.515625 1.828125 -2.359375 C 1.398438 -3.203125 1.1875 -4.207031 1.1875 -5.375 C 1.1875 -6.5625 1.398438 -7.570312 1.828125 -8.40625 C 2.265625 -9.25 2.859375 -9.890625 3.609375 -10.328125 C 4.367188 -10.765625 5.226562 -10.984375 6.1875 -10.984375 C 7.320312 -10.984375 8.222656 -10.765625 8.890625 -10.328125 C 9.566406 -9.898438 10.054688 -9.328125 10.359375 -8.609375 L 9.28125 -7.828125 L 9.078125 -7.828125 C 8.785156 -8.421875 8.410156 -8.851562 7.953125 -9.125 C 7.492188 -9.40625 6.90625 -9.546875 6.1875 -9.546875 C 5.519531 -9.546875 4.9375 -9.390625 4.4375 -9.078125 C 3.9375 -8.765625 3.546875 -8.296875 3.265625 -7.671875 C 2.992188 -7.046875 2.859375 -6.28125 2.859375 -5.375 C 2.859375 -4.476562 2.992188 -3.71875 3.265625 -3.09375 C 3.546875 -2.476562 3.9375 -2.007812 4.4375 -1.6875 C 4.9375 -1.375 5.519531 -1.21875 6.1875 -1.21875 C 6.9375 -1.21875 7.554688 -1.382812 8.046875 -1.71875 C 8.535156 -2.0625 8.921875 -2.597656 9.203125 -3.328125 L 9.40625 -3.328125 L 10.453125 -2.71875 C 10.171875 -1.8125 9.671875 -1.097656 8.953125 -0.578125 C 8.234375 -0.0546875 7.3125 0.203125 6.1875 0.203125 Z M 6.1875 0.203125 "/></g></g></g><g fill="#02066b" fill-opacity="1"><g transform="translate(137.237459, 360.213874)"><g><path d="M 4.4375 0.203125 C 3.382812 0.203125 2.554688 -0.0703125 1.953125 -0.625 C 1.359375 -1.175781 1.0625 -1.96875 1.0625 -3 C 1.0625 -3.632812 1.191406 -4.171875 1.453125 -4.609375 C 1.722656 -5.054688 2.132812 -5.414062 2.6875 -5.6875 C 3.238281 -5.96875 3.960938 -6.179688 4.859375 -6.328125 C 5.640625 -6.460938 6.234375 -6.609375 6.640625 -6.765625 C 7.046875 -6.929688 7.316406 -7.113281 7.453125 -7.3125 C 7.597656 -7.519531 7.671875 -7.773438 7.671875 -8.078125 C 7.671875 -8.566406 7.5 -8.941406 7.15625 -9.203125 C 6.820312 -9.460938 6.285156 -9.59375 5.546875 -9.59375 C 4.847656 -9.59375 4.25 -9.457031 3.75 -9.1875 C 3.257812 -8.914062 2.804688 -8.515625 2.390625 -7.984375 L 2.1875 -7.984375 L 1.40625 -9.078125 C 1.863281 -9.660156 2.441406 -10.125 3.140625 -10.46875 C 3.847656 -10.8125 4.648438 -10.984375 5.546875 -10.984375 C 6.816406 -10.984375 7.753906 -10.703125 8.359375 -10.140625 C 8.960938 -9.585938 9.265625 -8.816406 9.265625 -7.828125 L 9.265625 -2.125 C 9.265625 -1.519531 9.515625 -1.21875 10.015625 -1.21875 C 10.191406 -1.21875 10.359375 -1.25 10.515625 -1.3125 L 10.640625 -1.265625 L 10.828125 -0.171875 C 10.710938 -0.0859375 10.554688 -0.0234375 10.359375 0.015625 C 10.171875 0.0546875 9.976562 0.078125 9.78125 0.078125 C 9.1875 0.078125 8.738281 -0.0507812 8.4375 -0.3125 C 8.132812 -0.570312 7.941406 -0.957031 7.859375 -1.46875 L 7.640625 -1.484375 C 7.335938 -0.921875 6.925781 -0.5 6.40625 -0.21875 C 5.882812 0.0625 5.226562 0.203125 4.4375 0.203125 Z M 4.796875 -1.0625 C 5.390625 -1.0625 5.90625 -1.195312 6.34375 -1.46875 C 6.789062 -1.75 7.128906 -2.140625 7.359375 -2.640625 C 7.597656 -3.148438 7.71875 -3.734375 7.71875 -4.390625 L 7.71875 -5.75 L 7.53125 -5.796875 C 7.289062 -5.617188 7 -5.472656 6.65625 -5.359375 C 6.3125 -5.253906 5.828125 -5.15625 5.203125 -5.0625 C 4.578125 -4.976562 4.082031 -4.847656 3.71875 -4.671875 C 3.351562 -4.492188 3.09375 -4.269531 2.9375 -4 C 2.78125 -3.726562 2.703125 -3.394531 2.703125 -3 C 2.703125 -2.363281 2.882812 -1.878906 3.25 -1.546875 C 3.625 -1.222656 4.140625 -1.0625 4.796875 -1.0625 Z M 4.796875 -1.0625 "/></g></g></g><g fill="#02066b" fill-opacity="1"><g transform="translate(148.375684, 360.213874)"><g><path d="M 1.875 0 L 1.875 -10.765625 L 3.390625 -10.765625 L 3.390625 -9.078125 L 3.59375 -9.03125 C 4.09375 -10.257812 5.035156 -10.875 6.421875 -10.875 C 7.160156 -10.875 7.710938 -10.738281 8.078125 -10.46875 L 7.671875 -9.125 L 7.46875 -9.078125 C 7.0625 -9.285156 6.617188 -9.390625 6.140625 -9.390625 C 5.285156 -9.390625 4.625 -9.066406 4.15625 -8.421875 C 3.695312 -7.773438 3.46875 -6.726562 3.46875 -5.28125 L 3.46875 0 Z M 1.875 0 "/></g></g></g><g fill="#02066b" fill-opacity="1"><g transform="translate(156.692746, 360.213874)"><g><path d="M 10.265625 -5.015625 L 2.859375 -5.015625 C 2.910156 -3.710938 3.222656 -2.753906 3.796875 -2.140625 C 4.378906 -1.523438 5.179688 -1.21875 6.203125 -1.21875 C 6.972656 -1.21875 7.59375 -1.351562 8.0625 -1.625 C 8.53125 -1.90625 8.894531 -2.335938 9.15625 -2.921875 L 9.359375 -2.921875 L 10.40625 -2.3125 C 10.09375 -1.53125 9.59375 -0.914062 8.90625 -0.46875 C 8.21875 -0.0195312 7.316406 0.203125 6.203125 0.203125 C 5.160156 0.203125 4.265625 0 3.515625 -0.40625 C 2.765625 -0.820312 2.1875 -1.445312 1.78125 -2.28125 C 1.382812 -3.113281 1.1875 -4.144531 1.1875 -5.375 C 1.1875 -6.601562 1.398438 -7.632812 1.828125 -8.46875 C 2.253906 -9.3125 2.832031 -9.941406 3.5625 -10.359375 C 4.300781 -10.773438 5.148438 -10.984375 6.109375 -10.984375 C 7.484375 -10.984375 8.554688 -10.59375 9.328125 -9.8125 C 10.109375 -9.03125 10.503906 -7.875 10.515625 -6.34375 C 10.515625 -5.75 10.5 -5.347656 10.46875 -5.140625 Z M 8.9375 -6.34375 C 8.90625 -7.488281 8.648438 -8.320312 8.171875 -8.84375 C 7.691406 -9.363281 7.003906 -9.625 6.109375 -9.625 C 5.160156 -9.625 4.414062 -9.363281 3.875 -8.84375 C 3.34375 -8.320312 3.019531 -7.488281 2.90625 -6.34375 Z M 8.9375 -6.34375 "/></g></g></g><g fill="#02066b" fill-opacity="1"><g transform="translate(168.180931, 360.213874)"><g/></g></g><g fill="#02066b" fill-opacity="1"><g transform="translate(173.08136, 360.213874)"><g/></g></g><g fill="#02066b" fill-opacity="1"><g transform="translate(177.981788, 360.213874)"><g/></g></g><g fill="#02066b" fill-opacity="1"><g transform="translate(182.887961, 360.213874)"><g><path d="M 6.234375 0.203125 C 5.335938 0.203125 4.53125 0.0820312 3.8125 -0.15625 C 3.101562 -0.40625 2.507812 -0.726562 2.03125 -1.125 C 1.5625 -1.519531 1.210938 -1.957031 0.984375 -2.4375 L 1.890625 -3.546875 L 2.140625 -3.546875 C 3.023438 -2.054688 4.390625 -1.3125 6.234375 -1.3125 C 7.316406 -1.3125 8.117188 -1.535156 8.640625 -1.984375 C 9.160156 -2.429688 9.421875 -3.054688 9.421875 -3.859375 C 9.421875 -4.328125 9.332031 -4.722656 9.15625 -5.046875 C 8.988281 -5.367188 8.707031 -5.644531 8.3125 -5.875 C 7.914062 -6.113281 7.375 -6.316406 6.6875 -6.484375 L 5.015625 -6.890625 C 3.773438 -7.191406 2.859375 -7.671875 2.265625 -8.328125 C 1.679688 -8.984375 1.390625 -9.8125 1.390625 -10.8125 C 1.390625 -11.519531 1.570312 -12.148438 1.9375 -12.703125 C 2.300781 -13.265625 2.832031 -13.703125 3.53125 -14.015625 C 4.238281 -14.328125 5.082031 -14.484375 6.0625 -14.484375 C 7.132812 -14.484375 8.039062 -14.332031 8.78125 -14.03125 C 9.519531 -13.726562 10.109375 -13.273438 10.546875 -12.671875 L 9.734375 -11.5625 L 9.484375 -11.5625 C 9.078125 -12.0625 8.59375 -12.425781 8.03125 -12.65625 C 7.46875 -12.894531 6.8125 -13.015625 6.0625 -13.015625 C 5.070312 -13.015625 4.320312 -12.820312 3.8125 -12.4375 C 3.3125 -12.050781 3.0625 -11.519531 3.0625 -10.84375 C 3.0625 -10.207031 3.242188 -9.695312 3.609375 -9.3125 C 3.984375 -8.925781 4.609375 -8.628906 5.484375 -8.421875 L 7.203125 -8.015625 C 8.585938 -7.691406 9.585938 -7.191406 10.203125 -6.515625 C 10.828125 -5.847656 11.140625 -4.988281 11.140625 -3.9375 C 11.140625 -3.125 10.957031 -2.40625 10.59375 -1.78125 C 10.238281 -1.164062 9.691406 -0.679688 8.953125 -0.328125 C 8.222656 0.0234375 7.316406 0.203125 6.234375 0.203125 Z M 6.234375 0.203125 "/></g></g></g><g fill="#02066b" fill-opacity="1"><g transform="translate(195.119509, 360.213874)"><g><path d="M 6.1875 0.203125 C 5.164062 0.203125 4.28125 -0.0078125 3.53125 -0.4375 C 2.78125 -0.863281 2.203125 -1.492188 1.796875 -2.328125 C 1.390625 -3.171875 1.1875 -4.1875 1.1875 -5.375 C 1.1875 -6.570312 1.390625 -7.585938 1.796875 -8.421875 C 2.203125 -9.265625 2.78125 -9.898438 3.53125 -10.328125 C 4.28125 -10.765625 5.164062 -10.984375 6.1875 -10.984375 C 7.195312 -10.984375 8.078125 -10.765625 8.828125 -10.328125 C 9.585938 -9.898438 10.171875 -9.265625 10.578125 -8.421875 C 10.984375 -7.585938 11.1875 -6.570312 11.1875 -5.375 C 11.1875 -4.1875 10.984375 -3.171875 10.578125 -2.328125 C 10.171875 -1.492188 9.585938 -0.863281 8.828125 -0.4375 C 8.078125 -0.0078125 7.195312 0.203125 6.1875 0.203125 Z M 6.1875 -1.21875 C 7.257812 -1.21875 8.078125 -1.554688 8.640625 -2.234375 C 9.210938 -2.910156 9.5 -3.957031 9.5 -5.375 C 9.5 -6.800781 9.210938 -7.851562 8.640625 -8.53125 C 8.078125 -9.207031 7.257812 -9.546875 6.1875 -9.546875 C 5.113281 -9.546875 4.289062 -9.207031 3.71875 -8.53125 C 3.144531 -7.851562 2.859375 -6.800781 2.859375 -5.375 C 2.859375 -3.957031 3.144531 -2.910156 3.71875 -2.234375 C 4.289062 -1.554688 5.113281 -1.21875 6.1875 -1.21875 Z M 6.1875 -1.21875 "/></g></g></g><g fill="#02066b" fill-opacity="1"><g transform="translate(207.47796, 360.213874)"><g><path d="M 4.28125 0.203125 C 3.519531 0.203125 2.921875 -0.0078125 2.484375 -0.4375 C 2.054688 -0.875 1.84375 -1.523438 1.84375 -2.390625 L 1.84375 -15.09375 L 3.421875 -15.09375 L 3.421875 -2.484375 C 3.421875 -2.035156 3.507812 -1.710938 3.6875 -1.515625 C 3.863281 -1.316406 4.132812 -1.21875 4.5 -1.21875 C 4.71875 -1.21875 4.941406 -1.253906 5.171875 -1.328125 L 5.296875 -1.296875 L 5.484375 -0.046875 C 5.367188 0.0351562 5.203125 0.0976562 4.984375 0.140625 C 4.765625 0.179688 4.53125 0.203125 4.28125 0.203125 Z M 4.28125 0.203125 "/></g></g></g><g fill="#02066b" fill-opacity="1"><g transform="translate(213.335046, 360.213874)"><g><path d="M 5.328125 0.203125 C 4.109375 0.203125 3.195312 -0.117188 2.59375 -0.765625 C 2 -1.410156 1.703125 -2.351562 1.703125 -3.59375 L 1.703125 -10.765625 L 3.296875 -10.765625 L 3.296875 -3.640625 C 3.296875 -2.003906 4.066406 -1.1875 5.609375 -1.1875 C 6.585938 -1.1875 7.359375 -1.503906 7.921875 -2.140625 C 8.484375 -2.773438 8.765625 -3.8125 8.765625 -5.25 L 8.765625 -10.765625 L 10.359375 -10.765625 L 10.359375 0 L 8.859375 0 L 8.859375 -1.6875 L 8.65625 -1.734375 C 8.28125 -1.078125 7.832031 -0.585938 7.3125 -0.265625 C 6.800781 0.046875 6.140625 0.203125 5.328125 0.203125 Z M 5.328125 0.203125 "/></g></g></g><g fill="#02066b" fill-opacity="1"><g transform="translate(225.566593, 360.213874)"><g><path d="M 7.28125 -1.703125 L 7.796875 -0.5625 C 7.535156 -0.3125 7.195312 -0.125 6.78125 0 C 6.375 0.132812 5.929688 0.203125 5.453125 0.203125 C 3.390625 0.203125 2.359375 -0.835938 2.359375 -2.921875 L 2.359375 -9.46875 L 0.484375 -9.46875 L 0.484375 -10.78125 L 2.359375 -10.78125 L 2.359375 -13.0625 L 3.953125 -13.328125 L 3.953125 -10.78125 L 7.421875 -10.78125 L 7.421875 -9.46875 L 3.953125 -9.46875 L 3.953125 -3.078125 C 3.953125 -1.835938 4.488281 -1.21875 5.5625 -1.21875 C 6.15625 -1.21875 6.660156 -1.378906 7.078125 -1.703125 Z M 7.28125 -1.703125 "/></g></g></g><g fill="#02066b" fill-opacity="1"><g transform="translate(233.766513, 360.213874)"><g><path d="M 2.671875 -12.859375 C 2.335938 -12.859375 2.0625 -12.960938 1.84375 -13.171875 C 1.632812 -13.378906 1.53125 -13.644531 1.53125 -13.96875 C 1.53125 -14.300781 1.632812 -14.570312 1.84375 -14.78125 C 2.0625 -14.988281 2.335938 -15.09375 2.671875 -15.09375 C 3.015625 -15.09375 3.289062 -14.988281 3.5 -14.78125 C 3.707031 -14.570312 3.8125 -14.300781 3.8125 -13.96875 C 3.8125 -13.644531 3.707031 -13.378906 3.5 -13.171875 C 3.289062 -12.960938 3.015625 -12.859375 2.671875 -12.859375 Z M 1.875 0 L 1.875 -10.765625 L 3.46875 -10.765625 L 3.46875 0 Z M 1.875 0 "/></g></g></g><g fill="#02066b" fill-opacity="1"><g transform="translate(239.106223, 360.213874)"><g><path d="M 6.1875 0.203125 C 5.164062 0.203125 4.28125 -0.0078125 3.53125 -0.4375 C 2.78125 -0.863281 2.203125 -1.492188 1.796875 -2.328125 C 1.390625 -3.171875 1.1875 -4.1875 1.1875 -5.375 C 1.1875 -6.570312 1.390625 -7.585938 1.796875 -8.421875 C 2.203125 -9.265625 2.78125 -9.898438 3.53125 -10.328125 C 4.28125 -10.765625 5.164062 -10.984375 6.1875 -10.984375 C 7.195312 -10.984375 8.078125 -10.765625 8.828125 -10.328125 C 9.585938 -9.898438 10.171875 -9.265625 10.578125 -8.421875 C 10.984375 -7.585938 11.1875 -6.570312 11.1875 -5.375 C 11.1875 -4.1875 10.984375 -3.171875 10.578125 -2.328125 C 10.171875 -1.492188 9.585938 -0.863281 8.828125 -0.4375 C 8.078125 -0.0078125 7.195312 0.203125 6.1875 0.203125 Z M 6.1875 -1.21875 C 7.257812 -1.21875 8.078125 -1.554688 8.640625 -2.234375 C 9.210938 -2.910156 9.5 -3.957031 9.5 -5.375 C 9.5 -6.800781 9.210938 -7.851562 8.640625 -8.53125 C 8.078125 -9.207031 7.257812 -9.546875 6.1875 -9.546875 C 5.113281 -9.546875 4.289062 -9.207031 3.71875 -8.53125 C 3.144531 -7.851562 2.859375 -6.800781 2.859375 -5.375 C 2.859375 -3.957031 3.144531 -2.910156 3.71875 -2.234375 C 4.289062 -1.554688 5.113281 -1.21875 6.1875 -1.21875 Z M 6.1875 -1.21875 "/></g></g></g><g fill="#02066b" fill-opacity="1"><g transform="translate(251.464674, 360.213874)"><g><path d="M 1.875 0 L 1.875 -10.765625 L 3.390625 -10.765625 L 3.390625 -9.078125 L 3.59375 -9.03125 C 3.945312 -9.664062 4.398438 -10.148438 4.953125 -10.484375 C 5.515625 -10.816406 6.195312 -10.984375 7 -10.984375 C 8.300781 -10.984375 9.238281 -10.648438 9.8125 -9.984375 C 10.394531 -9.328125 10.6875 -8.3125 10.6875 -6.9375 L 10.6875 0 L 9.109375 0 L 9.109375 -6.890625 C 9.109375 -7.546875 9.023438 -8.066406 8.859375 -8.453125 C 8.691406 -8.847656 8.429688 -9.132812 8.078125 -9.3125 C 7.734375 -9.5 7.273438 -9.59375 6.703125 -9.59375 C 5.734375 -9.59375 4.953125 -9.269531 4.359375 -8.625 C 3.765625 -7.988281 3.46875 -6.957031 3.46875 -5.53125 L 3.46875 0 Z M 1.875 0 "/></g></g></g><g fill="#02066b" fill-opacity="1"><g transform="translate(263.862172, 360.213874)"><g><path d="M 4.90625 0.203125 C 4.226562 0.203125 3.601562 0.113281 3.03125 -0.0625 C 2.457031 -0.238281 1.972656 -0.484375 1.578125 -0.796875 C 1.179688 -1.109375 0.898438 -1.460938 0.734375 -1.859375 L 1.671875 -2.828125 L 1.875 -2.828125 C 2.226562 -2.296875 2.648438 -1.894531 3.140625 -1.625 C 3.640625 -1.351562 4.226562 -1.21875 4.90625 -1.21875 C 5.707031 -1.21875 6.3125 -1.375 6.71875 -1.6875 C 7.132812 -2 7.34375 -2.429688 7.34375 -2.984375 C 7.34375 -3.398438 7.21875 -3.742188 6.96875 -4.015625 C 6.71875 -4.296875 6.3125 -4.507812 5.75 -4.65625 L 3.9375 -5.09375 C 2.96875 -5.332031 2.257812 -5.703125 1.8125 -6.203125 C 1.363281 -6.710938 1.140625 -7.34375 1.140625 -8.09375 C 1.140625 -8.675781 1.289062 -9.1875 1.59375 -9.625 C 1.894531 -10.0625 2.328125 -10.394531 2.890625 -10.625 C 3.453125 -10.863281 4.117188 -10.984375 4.890625 -10.984375 C 5.878906 -10.984375 6.660156 -10.84375 7.234375 -10.5625 C 7.804688 -10.28125 8.25 -9.894531 8.5625 -9.40625 L 7.671875 -8.53125 L 7.46875 -8.53125 C 7.125 -8.925781 6.75 -9.210938 6.34375 -9.390625 C 5.9375 -9.566406 5.453125 -9.65625 4.890625 -9.65625 C 4.179688 -9.65625 3.640625 -9.523438 3.265625 -9.265625 C 2.890625 -9.015625 2.703125 -8.648438 2.703125 -8.171875 C 2.703125 -7.734375 2.832031 -7.378906 3.09375 -7.109375 C 3.363281 -6.835938 3.832031 -6.625 4.5 -6.46875 L 6.28125 -6.03125 C 7.21875 -5.8125 7.894531 -5.441406 8.3125 -4.921875 C 8.726562 -4.410156 8.9375 -3.769531 8.9375 -3 C 8.9375 -2.363281 8.785156 -1.804688 8.484375 -1.328125 C 8.179688 -0.847656 7.726562 -0.472656 7.125 -0.203125 C 6.519531 0.0664062 5.78125 0.203125 4.90625 0.203125 Z M 4.90625 0.203125 "/></g></g></g></svg>